<?xml version="1.0" encoding="UTF-8" standalone="no"?>
<!DOCTYPE svg PUBLIC "-//W3C//DTD SVG 1.1//EN" "http://www.w3.org/Graphics/SVG/1.1/DTD/svg11.dtd">

<!-- Created with Vectornator (http://vectornator.io/) -->
<svg height="100%" stroke-miterlimit="10" style="fill-rule:nonzero;clip-rule:evenodd;stroke-linecap:round;stroke-linejoin:round;" version="1.1" viewBox="0 0 1280 458.181" width="100%" xml:space="preserve" xmlns="http://www.w3.org/2000/svg" xmlns:vectornator="http://vectornator.io" xmlns:xlink="http://www.w3.org/1999/xlink">
<metadata>
<vectornator:setting key="IsTimeLapseWatermarkDisabled" value="false"/>
<vectornator:setting key="UndoHistoryDisabled" value="true"/>
<vectornator:setting key="VNDimensionsVisible" value="true"/>
<vectornator:setting key="VNSnapToGuides" value="true"/>
<vectornator:setting key="WDCMYKEnabledKey" value="false"/>
<vectornator:setting key="WDDisplayWhiteBackground" value="false"/>
<vectornator:setting key="WDDynamicGuides" value="false"/>
<vectornator:setting key="WDGuidesVisible" value="true"/>
<vectornator:setting key="WDIsolateActiveLayer" value="false"/>
<vectornator:setting key="WDOutlineMode" value="false"/>
<vectornator:setting key="WDRulersVisible" value="true"/>
<vectornator:setting key="WDSnapToEdges" value="false"/>
<vectornator:setting key="WDSnapToGrid" value="false"/>
<vectornator:setting key="WDSnapToPoints" value="false"/>
<vectornator:setting key="WDUnits" value="Points"/>
</metadata>
<defs>
<path d="M347.16 45.5394L1270.68 45.5394L1270.68 45.5394L1270.68 215.621L1270.68 215.621L347.16 215.621L347.16 215.621L347.16 45.5394L347.16 45.5394Z" fill-rule="evenodd" id="Fill"/>
<path d="M347.16 45.5394L1270.68 45.5394L1270.68 45.5394L1270.68 215.621L1270.68 215.621L347.16 215.621L347.16 215.621L347.16 45.5394L347.16 45.5394Z" fill-rule="evenodd" id="Fill_2"/>
<path d="M347.16 45.5394L1270.68 45.5394L1270.68 45.5394L1270.68 215.621L1270.68 215.621L347.16 215.621L347.16 215.621L347.16 45.5394L347.16 45.5394Z" fill-rule="evenodd" id="Fill_3"/>
<path d="M347.16 45.5394L1270.68 45.5394L1270.68 45.5394L1270.68 215.621L1270.68 215.621L347.16 215.621L347.16 215.621L347.16 45.5394L347.16 45.5394Z" fill-rule="evenodd" id="Fill_4"/>
<path d="M347.16 45.5394L1270.68 45.5394L1270.68 45.5394L1270.68 215.621L1270.68 215.621L347.16 215.621L347.16 215.621L347.16 45.5394L347.16 45.5394Z" fill-rule="evenodd" id="Fill_5"/>
<path d="M347.16 45.5394L1270.68 45.5394L1270.68 45.5394L1270.68 215.621L1270.68 215.621L347.16 215.621L347.16 215.621L347.16 45.5394L347.16 45.5394Z" fill-rule="evenodd" id="Fill_6"/>
<path d="M347.16 45.5394L1270.68 45.5394L1270.68 45.5394L1270.68 215.621L1270.68 215.621L347.16 215.621L347.16 215.621L347.16 45.5394L347.16 45.5394Z" fill-rule="evenodd" id="Fill_7"/>
<path d="M347.16 45.5394L1270.68 45.5394L1270.68 45.5394L1270.68 215.621L1270.68 215.621L347.16 215.621L347.16 215.621L347.16 45.5394L347.16 45.5394Z" fill-rule="evenodd" id="Fill_8"/>
<path d="M347.16 45.5394L1270.68 45.5394L1270.68 45.5394L1270.68 215.621L1270.68 215.621L347.16 215.621L347.16 215.621L347.16 45.5394L347.16 45.5394Z" fill-rule="evenodd" id="Fill_9"/>
<path d="M347.16 45.5394L1270.68 45.5394L1270.68 45.5394L1270.68 215.621L1270.68 215.621L347.16 215.621L347.16 215.621L347.16 45.5394L347.16 45.5394Z" fill-rule="evenodd" id="Fill_10"/>
<path d="M347.16 45.5394L1270.68 45.5394L1270.68 45.5394L1270.68 215.621L1270.68 215.621L347.16 215.621L347.16 215.621L347.16 45.5394L347.16 45.5394Z" fill-rule="evenodd" id="Fill_11"/>
<path d="M347.16 45.5394L1270.68 45.5394L1270.68 45.5394L1270.68 215.621L1270.68 215.621L347.16 215.621L347.16 215.621L347.16 45.5394L347.16 45.5394Z" fill-rule="evenodd" id="Fill_12"/>
<path d="M347.16 45.5394L1270.68 45.5394L1270.68 45.5394L1270.68 215.621L1270.68 215.621L347.16 215.621L347.16 215.621L347.16 45.5394L347.16 45.5394Z" fill-rule="evenodd" id="Fill_13"/>
<path d="M347.16 45.5394L1270.68 45.5394L1270.68 45.5394L1270.68 215.621L1270.68 215.621L347.16 215.621L347.16 215.621L347.16 45.5394L347.16 45.5394Z" fill-rule="evenodd" id="Fill_14"/>
<path d="M347.16 45.5394L1270.68 45.5394L1270.68 45.5394L1270.68 215.621L1270.68 215.621L347.16 215.621L347.16 215.621L347.16 45.5394L347.16 45.5394Z" fill-rule="evenodd" id="Fill_15"/>
<path d="M347.16 45.5394L1270.68 45.5394L1270.68 45.5394L1270.68 215.621L1270.68 215.621L347.16 215.621L347.16 215.621L347.16 45.5394L347.16 45.5394Z" fill-rule="evenodd" id="Fill_16"/>
<path d="M347.16 45.5394L1270.68 45.5394L1270.68 45.5394L1270.68 215.621L1270.68 215.621L347.16 215.621L347.16 215.621L347.16 45.5394L347.16 45.5394Z" fill-rule="evenodd" id="Fill_17"/>
<path d="M347.16 45.5394L1270.68 45.5394L1270.68 45.5394L1270.68 215.621L1270.68 215.621L347.16 215.621L347.16 215.621L347.16 45.5394L347.16 45.5394Z" fill-rule="evenodd" id="Fill_18"/>
<path d="M347.16 45.5394L1270.68 45.5394L1270.68 45.5394L1270.68 215.621L1270.68 215.621L347.16 215.621L347.16 215.621L347.16 45.5394L347.16 45.5394Z" fill-rule="evenodd" id="Fill_19"/>
<path d="M347.16 45.5394L1270.68 45.5394L1270.68 45.5394L1270.68 215.621L1270.68 215.621L347.16 215.621L347.16 215.621L347.16 45.5394L347.16 45.5394Z" fill-rule="evenodd" id="Fill_20"/>
<path d="M347.16 45.5394L1270.68 45.5394L1270.68 45.5394L1270.68 215.621L1270.68 215.621L347.16 215.621L347.16 215.621L347.16 45.5394L347.16 45.5394Z" fill-rule="evenodd" id="Fill_21"/>
<path d="M347.16 45.5394L1270.68 45.5394L1270.68 45.5394L1270.68 215.621L1270.68 215.621L347.16 215.621L347.16 215.621L347.16 45.5394L347.16 45.5394Z" fill-rule="evenodd" id="Fill_22"/>
<path d="M347.16 45.5394L1270.68 45.5394L1270.68 45.5394L1270.68 215.621L1270.68 215.621L347.16 215.621L347.16 215.621L347.16 45.5394L347.16 45.5394Z" fill-rule="evenodd" id="Fill_23"/>
</defs>
<g id="Layer-1" vectornator:layerName="Layer 1">
<g opacity="1">
<g opacity="1">
<path d="M163.767 411.091C156.13 411.091 148.595 409.074 141.982 405.252L28.7665 339.829C15.3447 332.073 7.00706 317.629 7.00706 302.13L7.00706 62.0538C7.00706 52.4488 14.8143 44.6324 24.4084 44.6324C25.9226 44.6324 27.4388 44.8317 28.9146 45.2249L157.039 79.3801C159.233 79.9653 161.497 80.2616 163.767 80.2616C166.038 80.2616 168.302 79.9653 170.497 79.3801L298.621 45.2249C300.095 44.8317 301.611 44.6324 303.126 44.6324C312.72 44.6324 320.527 52.4488 320.527 62.0538L320.527 302.13C320.527 317.629 312.189 332.073 298.769 339.829L185.554 405.252C178.939 409.074 171.406 411.091 163.767 411.091" fill="#ffffff" fill-rule="evenodd" opacity="1" stroke="none"/>
<path d="M154.795 87.7964L26.6688 53.6412C21.1403 52.1653 15.7178 56.3332 15.7178 62.0538L15.7178 302.13C15.7178 314.571 22.3528 326.065 33.1245 332.291L146.34 397.712C157.123 403.942 170.413 403.942 181.197 397.712L294.411 332.291C305.183 326.065 311.816 314.571 311.816 302.13L311.816 62.0538C311.816 56.3332 306.395 52.1653 300.865 53.6412L172.741 87.7964C166.863 89.3637 160.674 89.3637 154.795 87.7964" fill="#d51b28" fill-rule="evenodd" opacity="1" stroke="none"/>
<path d="M167.889 271.235L138.904 219.829C135.843 214.395 131.378 209.885 125.978 206.769L104.056 194.114L163.767 297.534L201.377 232.395C207.203 222.303 214.274 212.98 222.423 204.644L233.418 193.4L218.699 201.897C208.107 208.014 199.314 216.807 193.2 227.402L167.889 271.235ZM96.4935 189.744L41.8444 158.193L54.0006 179.262C57.0584 184.56 61.4568 188.96 66.7549 192.018L113.332 218.909L96.4935 189.744ZM179.354 207.833L158.238 244.41L168.295 261.828L188.844 226.233C195.724 214.318 205.618 204.423 217.533 197.546L285.691 158.193L219.654 175.887C210.793 178.263 201.465 178.263 192.606 175.887L179.259 172.312L177.004 180.725L168.593 178.47L166.338 186.88L157.927 184.629L155.673 193.038L184.658 200.805L183.633 201.943C182.006 203.751 180.572 205.727 179.354 207.833M117.686 226.451L76.6745 202.773L88.8453 223.852C91.9013 229.148 96.2996 233.547 101.596 236.603L134.522 255.613L117.686 226.451ZM138.877 263.154L155.716 292.322L136.428 281.182C131.132 278.124 126.735 273.726 123.677 268.433L111.508 247.351L138.877 263.154Z" fill="#ffffff" fill-rule="evenodd" opacity="1" stroke="none"/>
</g>
<g opacity="1">
<g opacity="1">
<path d="M441.548 366.738L443.179 375.151L443.724 375.151L445.269 366.951L471.436 263.205C472.976 257.1 477.757 252.909 483.183 252.909L501.979 252.909L457.064 407.947L429.841 407.947L385.02 252.909L403.803 252.909C409.234 252.909 414.02 257.107 415.555 263.223L441.548 366.738Z" fill="#ffffff" fill-rule="evenodd" opacity="1" stroke="none"/>
<path d="M709.272 407.946L689.853 407.946C685.523 407.946 681.512 405.261 679.308 400.888L629.509 301.998L628.966 302.104L628.966 407.946L602.472 407.946L602.472 252.907L621.978 252.907C626.309 252.907 630.316 255.591 632.523 259.97L682.318 358.75L682.864 358.65L682.864 252.907L709.272 252.907L709.272 407.946Z" fill="#ffffff" fill-rule="evenodd" opacity="1" stroke="none"/>
<path d="M794.786 383.992L841.335 383.992C848.102 383.992 853.585 390.424 853.585 398.364L853.585 407.946L768.292 407.946L768.292 252.909L794.786 252.909L794.786 383.992Z" fill="#ffffff" fill-rule="evenodd" opacity="1" stroke="none"/>
<path d="M906.999 350.129L940.3 350.129L923.967 289.218L923.422 289.218L906.999 350.129ZM946.833 374.513L900.465 374.513L894.185 397.893C892.577 403.88 887.846 407.946 882.498 407.946L864.717 407.946L910.178 252.909L937.305 252.909L982.585 407.946L964.799 407.946C959.454 407.946 954.723 403.88 953.117 397.893L946.833 374.513Z" fill="#ffffff" fill-rule="evenodd" opacity="1" stroke="none"/>
<path d="M1099.91 407.946L1080.5 407.946C1076.17 407.946 1072.16 405.261 1069.95 400.888L1020.15 301.998L1019.61 302.104L1019.61 407.946L993.115 407.946L993.115 252.907L1012.62 252.907C1016.96 252.907 1020.96 255.591 1023.16 259.97L1072.96 358.75L1073.51 358.65L1073.51 252.907L1099.91 252.907L1099.91 407.946Z" fill="#ffffff" fill-rule="evenodd" opacity="1" stroke="none"/>
<path d="M1217.53 386.757C1213.6 392.861 1207.47 398.297 1199.15 403.052C1190.83 407.805 1180.32 410.184 1167.62 410.184C1151.47 410.184 1138.28 404.295 1128.06 392.508C1117.83 380.725 1112.72 365.425 1112.72 346.612L1112.72 314.242C1112.72 295.502 1117.64 280.222 1127.46 268.404C1137.3 256.581 1149.96 250.672 1165.44 250.672C1181.53 250.672 1193.86 255.271 1202.42 264.465C1210.98 273.657 1215.35 285.743 1215.53 300.721L1215.35 301.36L1190.39 301.36C1189.91 293.123 1187.67 286.612 1183.68 281.819C1179.69 277.029 1173.85 274.633 1166.17 274.633C1158.06 274.633 1151.53 278.3 1146.57 285.641C1141.61 292.982 1139.13 302.431 1139.13 313.995L1139.13 346.546C1139.13 358.315 1141.7 367.876 1146.84 375.217C1151.98 382.558 1158.91 386.225 1167.62 386.225C1173.79 386.225 1178.75 385.48 1182.5 383.995C1186.25 382.508 1189.09 380.669 1191.03 378.474L1191.03 349.805L1179.87 349.805C1173.11 349.805 1167.62 343.372 1167.62 335.431L1167.62 328.3L1217.53 328.3L1217.53 386.757Z" fill="#ffffff" fill-rule="evenodd" opacity="1" stroke="none"/>
<path d="M516.356 350.129L549.657 350.129L533.324 289.218L532.781 289.218L516.356 350.129ZM556.191 374.513L509.823 374.513L503.54 397.893C501.932 403.88 497.203 407.946 491.857 407.946L474.072 407.946L519.533 252.909L546.663 252.909L591.943 407.946L574.158 407.946C568.81 407.946 564.081 403.88 562.473 397.893L556.191 374.513Z" fill="#ffffff" fill-rule="evenodd" opacity="1" stroke="none"/>
<path d="M564.844 208.832L565.019 209.448C565.312 218.104 562.737 225.187 557.307 230.679C551.87 236.166 544.56 238.912 535.378 238.912C526.135 238.912 518.781 236.166 513.32 230.679C507.859 225.187 505.299 218.104 505.646 209.448L505.822 208.832L524.392 208.832C524.392 212.449 525.281 215.419 527.049 217.735C528.825 220.052 531.597 221.213 535.378 221.213C539.039 221.213 541.757 220.052 543.531 217.735C545.301 215.419 546.19 212.449 546.19 208.832L564.844 208.832Z" fill="#ffffff" fill-rule="evenodd" opacity="1" stroke="none"/>
</g>
<g opacity="1">
<g opacity="1" vectornator:mask="#Fill">
<clipPath id="ClipPath">
<use overflow="#visible" xlink:href="#Fill"/>
</clipPath>
<g clip-path="url(#ClipPath)">
<path d="M703.35 69.1332L687.818 69.1332L687.818 111.377L677.37 111.377L677.37 69.1332L662.046 69.1332L662.046 60.6712L703.35 60.6712L703.35 69.1332Z" fill="#ffffff" fill-rule="evenodd" opacity="1" stroke="none"/>
</g>
</g>
<g opacity="1" vectornator:mask="#Fill_2">
<clipPath id="ClipPath_2">
<use overflow="#visible" xlink:href="#Fill_2"/>
</clipPath>
<g clip-path="url(#ClipPath_2)">
<path d="M728.076 92.8165L719.753 92.8165L719.753 111.377L709.305 111.377L709.305 60.6712L728.147 60.6712C734.137 60.6712 738.756 62.0062 742.008 64.6763C745.258 67.3464 746.883 71.1193 746.883 75.9949C746.883 79.4533 746.134 82.3392 744.636 84.649C743.138 86.9588 740.87 88.7986 737.827 90.1684L748.798 110.891L748.798 111.377L737.584 111.377L728.076 92.8165ZM719.753 84.3527L728.182 84.3527C730.804 84.3527 732.836 83.6852 734.276 82.3501C735.715 81.0151 736.435 79.1753 736.435 76.8307C736.435 74.4386 735.755 72.5586 734.398 71.1888C733.039 69.819 730.956 69.1332 728.147 69.1332L719.753 69.1332L719.753 84.3527Z" fill="#ffffff" fill-rule="evenodd" opacity="1" stroke="none"/>
</g>
</g>
<g opacity="1" vectornator:mask="#Fill_3">
<clipPath id="ClipPath_3">
<use overflow="#visible" xlink:href="#Fill_3"/>
</clipPath>
<g clip-path="url(#ClipPath_3)">
<path d="M793.202 60.6712L793.202 68.612C794.943 68.473 796.295 68.0487 797.259 67.3409C798.222 66.6313 798.919 65.6346 799.349 64.3453C799.779 63.056 799.993 60.8925 799.993 57.8493L806.714 57.8493C806.714 63.4217 805.629 67.4744 803.458 70.0037C801.287 72.5348 797.869 73.9046 793.202 74.1149L793.202 94.0693C793.202 99.6179 791.467 104.007 787.995 107.233C784.524 110.461 779.782 112.074 773.769 112.074C767.847 112.074 763.147 110.507 759.663 107.374C756.181 104.239 754.405 99.9325 754.336 94.4533L754.336 60.6712L764.784 60.6712L764.784 94.1387C764.784 97.4599 765.58 99.8795 767.169 101.401C768.76 102.921 770.96 103.682 773.769 103.682C779.643 103.682 782.626 100.595 782.719 94.4186L782.719 60.6712L793.202 60.6712Z" fill="#ffffff" fill-rule="evenodd" opacity="1" stroke="none"/>
</g>
</g>
<g opacity="1" vectornator:mask="#Fill_4">
<clipPath id="ClipPath_4">
<use overflow="#visible" xlink:href="#Fill_4"/>
</clipPath>
<g clip-path="url(#ClipPath_4)">
<path d="M847.078 87.1746C847.078 92.1655 846.196 96.5418 844.431 100.304C842.667 104.064 840.143 106.966 836.856 109.011C833.572 111.054 829.804 112.074 825.556 112.074C821.353 112.074 817.604 111.065 814.307 109.046C811.01 107.025 808.457 104.141 806.644 100.39C804.834 96.6406 803.917 92.3282 803.893 87.4525L803.893 84.9452C803.893 79.9525 804.793 75.5597 806.593 71.763C808.392 67.9664 810.935 65.053 814.219 63.0212C817.506 60.9894 821.26 59.9744 825.486 59.9744C828.667 59.9744 831.564 60.5377 834.175 61.6642C836.787 62.789 839.045 64.4093 840.949 66.5216C842.643 66.1046 843.804 65.0585 844.431 63.387C845.059 61.7154 845.371 59.5337 845.371 56.8398L852.198 56.8398C852.198 64.8263 849.55 69.7147 844.258 71.5015C846.092 75.3329 847.032 79.6983 847.078 84.5959L847.078 87.1746ZM836.491 84.8757C836.491 79.5593 835.54 75.5194 833.636 72.7561C831.732 69.9927 829.014 68.612 825.486 68.612C821.981 68.612 819.276 69.9763 817.372 72.7031C815.468 75.4317 814.504 79.4313 814.481 84.702L814.481 87.1746C814.481 92.352 815.434 96.3681 817.337 99.2229C819.241 102.08 821.981 103.508 825.556 103.508C829.062 103.508 831.754 102.133 833.636 99.3802C835.516 96.6296 836.467 92.619 836.491 87.3483L836.491 84.8757ZM830.675 57.7798L822.421 57.7798L812.809 46.9842L823.778 46.9842L830.675 57.7798Z" fill="#ffffff" fill-rule="evenodd" opacity="1" stroke="none"/>
</g>
</g>
<g opacity="1" vectornator:mask="#Fill_5">
<clipPath id="ClipPath_5">
<use overflow="#visible" xlink:href="#Fill_5"/>
</clipPath>
<g clip-path="url(#ClipPath_5)">
<path d="M896.88 111.377L886.432 111.377L866.094 78.014L866.094 111.377L855.646 111.377L855.646 60.6712L866.094 60.6712L886.467 94.104L886.467 60.6712L896.88 60.6712L896.88 111.377Z" fill="#ffffff" fill-rule="evenodd" opacity="1" stroke="none"/>
</g>
</g>
<g opacity="1" vectornator:mask="#Fill_6">
<clipPath id="ClipPath_6">
<use overflow="#visible" xlink:href="#Fill_6"/>
</clipPath>
<g clip-path="url(#ClipPath_6)">
<path d="M946.123 104.971C944.243 107.222 941.586 108.969 938.15 110.212C934.713 111.454 930.906 112.074 926.727 112.074C922.338 112.074 918.49 111.118 915.181 109.201C911.873 107.286 909.318 104.506 907.519 100.862C905.719 97.2149 904.797 92.9317 904.75 88.0103L904.75 84.5612C904.75 79.5008 905.604 75.1189 907.31 71.4155C909.016 67.7122 911.478 64.8793 914.693 62.917C917.908 60.9546 921.676 59.9744 925.995 59.9744C932.008 59.9744 936.709 61.4082 940.099 64.2758C943.49 67.1434 945.498 71.3168 946.123 76.796L935.955 76.796C935.491 73.8936 934.463 71.7685 932.873 70.4225C931.282 69.0765 929.093 68.4016 926.308 68.4016C922.756 68.4016 920.052 69.7367 918.193 72.4068C916.335 75.0769 915.395 79.0473 915.373 84.3179L915.373 87.5568C915.373 92.8732 916.383 96.8911 918.402 99.607C920.423 102.323 923.382 103.682 927.283 103.682C931.207 103.682 934.004 102.846 935.677 101.174L935.677 92.4325L926.169 92.4325L926.169 84.7367L946.123 84.7367L946.123 104.971Z" fill="#ffffff" fill-rule="evenodd" opacity="1" stroke="none"/>
</g>
</g>
<g opacity="1" vectornator:mask="#Fill_7">
<clipPath id="ClipPath_7">
<use overflow="#visible" xlink:href="#Fill_7"/>
</clipPath>
<g clip-path="url(#ClipPath_7)">
<path d="M389.304 175.165L383.87 181.017L383.87 195.503L373.422 195.503L373.422 144.797L383.87 144.797L383.87 167.782L388.468 161.48L401.389 144.797L414.24 144.797L396.233 167.33L414.761 195.503L402.328 195.503L389.304 175.165Z" fill="#ffffff" fill-rule="evenodd" opacity="1" stroke="none"/>
</g>
</g>
<g opacity="1" vectornator:mask="#Fill_8">
<clipPath id="ClipPath_8">
<use overflow="#visible" xlink:href="#Fill_8"/>
</clipPath>
<g clip-path="url(#ClipPath_8)">
<path d="M436.18 167.643L446.732 144.797L458.155 144.797L441.507 177.116L441.507 195.503L430.886 195.503L430.886 177.116L414.24 144.797L425.697 144.797L436.18 167.643ZM449.379 131.703C449.379 134.325 448.612 136.526 447.08 138.301C445.547 140.079 443.678 140.966 441.473 140.966C440.591 140.966 439.807 140.867 439.123 140.67C438.437 140.472 437.491 140.05 436.284 139.399C435.077 138.749 434.207 138.349 433.673 138.197C433.139 138.047 432.557 137.972 431.932 137.972C431.118 137.972 430.428 138.261 429.858 138.843C429.289 139.422 429.006 140.247 429.006 141.315L423.155 140.966C423.155 138.389 423.914 136.194 425.436 134.384C426.957 132.573 428.819 131.668 431.025 131.668C431.721 131.668 432.378 131.754 432.992 131.93C433.609 132.103 434.613 132.526 436.006 133.201C437.398 133.874 438.362 134.28 438.896 134.419C439.43 134.558 439.988 134.627 440.567 134.627C441.381 134.627 442.084 134.344 442.674 133.775C443.267 133.206 443.563 132.387 443.563 131.319L449.379 131.703Z" fill="#ffffff" fill-rule="evenodd" opacity="1" stroke="none"/>
</g>
</g>
<g opacity="1" vectornator:mask="#Fill_9">
<clipPath id="ClipPath_9">
<use overflow="#visible" xlink:href="#Fill_9"/>
</clipPath>
<g clip-path="url(#ClipPath_9)">
<path d="M518.719 153.259L503.185 153.259L503.185 195.503L492.738 195.503L492.738 153.259L477.415 153.259L477.415 144.797L518.719 144.797L518.719 153.259Z" fill="#ffffff" fill-rule="evenodd" opacity="1" stroke="none"/>
</g>
</g>
<g opacity="1" vectornator:mask="#Fill_10">
<clipPath id="ClipPath_10">
<use overflow="#visible" xlink:href="#Fill_10"/>
</clipPath>
<g clip-path="url(#ClipPath_10)">
<path d="M565.943 195.503L555.495 195.503L555.495 173.773L535.122 173.773L535.122 195.503L524.673 195.503L524.673 144.797L535.122 144.797L535.122 165.344L555.495 165.344L555.495 144.797L565.943 144.797L565.943 195.503Z" fill="#ffffff" fill-rule="evenodd" opacity="1" stroke="none"/>
</g>
</g>
<g opacity="1" vectornator:mask="#Fill_11">
<clipPath id="ClipPath_11">
<use overflow="#visible" xlink:href="#Fill_11"/>
</clipPath>
<g clip-path="url(#ClipPath_11)">
<path d="M613.445 144.797L613.445 178.195C613.445 183.744 611.711 188.133 608.24 191.359C604.769 194.587 600.027 196.2 594.014 196.2C588.092 196.2 583.39 194.633 579.908 191.5C576.426 188.366 574.65 184.059 574.58 178.579L574.58 144.797L585.027 144.797L585.027 178.265C585.027 181.586 585.822 184.006 587.413 185.527C589.003 187.047 591.203 187.808 594.014 187.808C599.886 187.808 602.871 184.721 602.964 178.545L602.964 144.797L613.445 144.797Z" fill="#ffffff" fill-rule="evenodd" opacity="1" stroke="none"/>
</g>
</g>
<g opacity="1" vectornator:mask="#Fill_12">
<clipPath id="ClipPath_12">
<use overflow="#visible" xlink:href="#Fill_12"/>
</clipPath>
<g clip-path="url(#ClipPath_12)">
<path d="M650.64 185.057L632.322 185.057L628.838 195.503L617.73 195.503L636.605 144.797L646.287 144.797L665.267 195.503L654.158 195.503L650.64 185.057ZM635.142 176.593L647.82 176.593L641.446 157.614L635.142 176.593ZM654.959 140.966L654.959 141.385L646.949 141.385L641.585 136.333L636.223 141.385L628.352 141.385L628.352 140.827L638.661 131.215L644.511 131.215L654.959 140.966ZM636.152 203.444C636.152 202.052 636.675 200.902 637.719 199.997C638.765 199.092 640.111 198.638 641.759 198.638C643.43 198.638 644.789 199.092 645.833 199.997C646.879 200.902 647.401 202.052 647.401 203.444C647.401 204.814 646.885 205.964 645.852 206.893C644.818 207.821 643.454 208.285 641.759 208.285C640.065 208.285 638.706 207.821 637.684 206.893C636.664 205.964 636.152 204.814 636.152 203.444Z" fill="#ffffff" fill-rule="evenodd" opacity="1" stroke="none"/>
</g>
</g>
<g opacity="1" vectornator:mask="#Fill_13">
<clipPath id="ClipPath_13">
<use overflow="#visible" xlink:href="#Fill_13"/>
</clipPath>
<g clip-path="url(#ClipPath_13)">
<path d="M708.173 153.259L692.64 153.259L692.64 195.503L682.192 195.503L682.192 153.259L666.869 153.259L666.869 144.797L708.173 144.797L708.173 153.259Z" fill="#ffffff" fill-rule="evenodd" opacity="1" stroke="none"/>
</g>
</g>
<g opacity="1" vectornator:mask="#Fill_14">
<clipPath id="ClipPath_14">
<use overflow="#visible" xlink:href="#Fill_14"/>
</clipPath>
<g clip-path="url(#ClipPath_14)">
<path d="M750.627 182.932L762.119 144.797L773.751 144.797L756.093 195.503L745.194 195.503L727.606 144.797L739.204 144.797L750.627 182.932Z" fill="#ffffff" fill-rule="evenodd" opacity="1" stroke="none"/>
</g>
</g>
<g opacity="1" vectornator:mask="#Fill_15">
<clipPath id="ClipPath_15">
<use overflow="#visible" xlink:href="#Fill_15"/>
</clipPath>
<g clip-path="url(#ClipPath_15)">
<path d="M807.149 185.057L788.831 185.057L785.349 195.503L774.239 195.503L793.114 144.797L802.796 144.797L821.778 195.503L810.668 195.503L807.149 185.057ZM791.651 176.593L804.329 176.593L797.955 157.614L791.651 176.593ZM803.109 142.01L794.855 142.01L785.243 131.215L796.214 131.215L803.109 142.01Z" fill="#ffffff" fill-rule="evenodd" opacity="1" stroke="none"/>
</g>
</g>
<g opacity="1" vectornator:mask="#Fill_16">
<clipPath id="ClipPath_16">
<use overflow="#visible" xlink:href="#Fill_16"/>
</clipPath>
<g clip-path="url(#ClipPath_16)">
<path d="M884.08 178.614C883.687 184.07 881.672 188.366 878.038 191.5C874.406 194.633 869.616 196.2 863.672 196.2C857.173 196.2 852.058 194.013 848.332 189.636C844.605 185.26 842.741 179.252 842.741 171.613L842.741 168.514C842.741 163.638 843.601 159.344 845.32 155.628C847.037 151.913 849.494 149.064 852.685 147.078C855.878 145.094 859.587 144.101 863.811 144.101C869.664 144.101 874.377 145.668 877.952 148.802C881.527 151.937 883.594 156.335 884.15 162.001L873.704 162.001C873.448 158.727 872.537 156.354 870.969 154.88C869.402 153.406 867.016 152.669 863.811 152.669C860.329 152.669 857.723 153.916 855.993 156.412C854.263 158.909 853.376 162.778 853.329 168.027L853.329 171.857C853.329 177.336 854.159 181.341 855.819 183.872C857.48 186.403 860.097 187.669 863.672 187.669C866.9 187.669 869.309 186.932 870.9 185.458C872.489 183.982 873.402 181.701 873.634 178.614L884.08 178.614Z" fill="#ffffff" fill-rule="evenodd" opacity="1" stroke="none"/>
</g>
</g>
<g opacity="1" vectornator:mask="#Fill_17">
<clipPath id="ClipPath_17">
<use overflow="#visible" xlink:href="#Fill_17"/>
</clipPath>
<g clip-path="url(#ClipPath_17)">
<path d="M932.594 171.301C932.594 176.292 931.712 180.668 929.947 184.43C928.183 188.19 925.659 191.092 922.372 193.137C919.088 195.18 915.32 196.2 911.072 196.2C906.869 196.2 903.12 195.191 899.823 193.172C896.525 191.151 893.972 188.267 892.16 184.516C890.35 180.767 889.433 176.454 889.41 171.579L889.41 169.071C889.41 164.079 890.309 159.686 892.109 155.889C893.908 152.092 896.451 149.179 899.735 147.147C903.021 145.116 906.776 144.101 911.003 144.101C915.227 144.101 918.984 145.116 922.268 147.147C925.553 149.179 928.097 152.092 929.894 155.889C931.694 159.686 932.594 164.068 932.594 169.037L932.594 171.301ZM922.007 169.002C922.007 163.685 921.056 159.646 919.152 156.882C917.248 154.119 914.53 152.738 911.003 152.738C907.497 152.738 904.792 154.102 902.888 156.829C900.984 159.558 900.02 163.557 899.997 168.828L899.997 171.301C899.997 176.478 900.949 180.494 902.853 183.349C904.757 186.206 907.497 187.634 911.072 187.634C914.578 187.634 917.27 186.259 919.152 183.506C921.032 180.756 921.983 176.745 922.007 171.474L922.007 169.002ZM924.375 140.966L924.375 141.385L916.365 141.385L911.003 136.333L905.639 141.385L897.767 141.385L897.767 140.827L908.076 131.215L913.927 131.215L924.375 140.966Z" fill="#ffffff" fill-rule="evenodd" opacity="1" stroke="none"/>
</g>
</g>
<g opacity="1" vectornator:mask="#Fill_18">
<clipPath id="ClipPath_18">
<use overflow="#visible" xlink:href="#Fill_18"/>
</clipPath>
<g clip-path="url(#ClipPath_18)">
<path d="M981.42 195.503L970.973 195.503L950.635 162.14L950.635 195.503L940.187 195.503L940.187 144.797L950.635 144.797L971.008 178.23L971.008 144.797L981.42 144.797L981.42 195.503Z" fill="#ffffff" fill-rule="evenodd" opacity="1" stroke="none"/>
</g>
</g>
<g opacity="1" vectornator:mask="#Fill_19">
<clipPath id="ClipPath_19">
<use overflow="#visible" xlink:href="#Fill_19"/>
</clipPath>
<g clip-path="url(#ClipPath_19)">
<path d="M1030.66 189.097C1028.78 191.348 1026.13 193.095 1022.69 194.338C1019.25 195.58 1015.45 196.2 1011.27 196.2C1006.88 196.2 1003.03 195.244 999.723 193.327C996.413 191.412 993.859 188.633 992.06 184.988C990.26 181.341 989.339 177.058 989.291 172.136L989.291 168.687C989.291 163.627 990.145 159.245 991.851 155.542C993.558 151.838 996.019 149.005 999.234 147.043C1002.45 145.081 1006.22 144.101 1010.53 144.101C1016.55 144.101 1021.25 145.534 1024.64 148.402C1028.03 151.27 1030.04 155.443 1030.66 160.922L1020.5 160.922C1020.03 158.02 1019 155.895 1017.41 154.549C1015.82 153.203 1013.63 152.528 1010.85 152.528C1007.3 152.528 1004.59 153.863 1002.73 156.533C1000.88 159.203 999.937 163.173 999.913 168.444L999.913 171.683C999.913 176.999 1000.92 181.017 1002.94 183.733C1004.96 186.449 1007.92 187.808 1011.82 187.808C1015.75 187.808 1018.54 186.972 1020.22 185.3L1020.22 176.559L1010.71 176.559L1010.71 168.863L1030.66 168.863L1030.66 189.097Z" fill="#ffffff" fill-rule="evenodd" opacity="1" stroke="none"/>
</g>
</g>
<g opacity="1" vectornator:mask="#Fill_20">
<clipPath id="ClipPath_20">
<use overflow="#visible" xlink:href="#Fill_20"/>
</clipPath>
<g clip-path="url(#ClipPath_20)">
<path d="M1098.12 195.503L1087.68 195.503L1067.34 162.14L1067.34 195.503L1056.89 195.503L1056.89 144.797L1067.34 144.797L1087.71 178.23L1087.71 144.797L1098.12 144.797L1098.12 195.503Z" fill="#ffffff" fill-rule="evenodd" opacity="1" stroke="none"/>
</g>
</g>
<g opacity="1" vectornator:mask="#Fill_21">
<clipPath id="ClipPath_21">
<use overflow="#visible" xlink:href="#Fill_21"/>
</clipPath>
<g clip-path="url(#ClipPath_21)">
<path d="M1147.37 189.097C1145.49 191.348 1142.83 193.095 1139.39 194.338C1135.96 195.58 1132.15 196.2 1127.97 196.2C1123.58 196.2 1119.73 195.244 1116.43 193.327C1113.12 191.412 1110.56 188.633 1108.76 184.988C1106.96 181.341 1106.04 177.058 1105.99 172.136L1105.99 168.687C1105.99 163.627 1106.85 159.245 1108.55 155.542C1110.26 151.838 1112.72 149.005 1115.94 147.043C1119.15 145.081 1122.92 144.101 1127.24 144.101C1133.25 144.101 1137.95 145.534 1141.34 148.402C1144.73 151.27 1146.74 155.443 1147.37 160.922L1137.2 160.922C1136.73 158.02 1135.71 155.895 1134.12 154.549C1132.53 153.203 1130.34 152.528 1127.55 152.528C1124 152.528 1121.29 153.863 1119.44 156.533C1117.58 159.203 1116.64 163.173 1116.62 168.444L1116.62 171.683C1116.62 176.999 1117.63 181.017 1119.65 183.733C1121.67 186.449 1124.63 187.808 1128.53 187.808C1132.45 187.808 1135.25 186.972 1136.92 185.3L1136.92 176.559L1127.41 176.559L1127.41 168.863L1147.37 168.863L1147.37 189.097Z" fill="#ffffff" fill-rule="evenodd" opacity="1" stroke="none"/>
</g>
</g>
<g opacity="1" vectornator:mask="#Fill_22">
<clipPath id="ClipPath_22">
<use overflow="#visible" xlink:href="#Fill_22"/>
</clipPath>
<g clip-path="url(#ClipPath_22)">
<path d="M1197.1 195.503L1186.65 195.503L1186.65 173.773L1166.28 173.773L1166.28 195.503L1155.83 195.503L1155.83 144.797L1166.28 144.797L1166.28 165.344L1186.65 165.344L1186.65 144.797L1197.1 144.797L1197.1 195.503Z" fill="#ffffff" fill-rule="evenodd" opacity="1" stroke="none"/>
</g>
</g>
<g opacity="1" vectornator:mask="#Fill_23">
<clipPath id="ClipPath_23">
<use overflow="#visible" xlink:href="#Fill_23"/>
</clipPath>
<g clip-path="url(#ClipPath_23)">
<path d="M1236.73 173.528L1216.67 173.528L1216.67 187.111L1240.22 187.111L1240.22 195.503L1206.22 195.503L1206.22 144.797L1240.15 144.797L1240.15 153.259L1216.67 153.259L1216.67 165.344L1236.73 165.344L1236.73 173.528ZM1237.19 140.862L1237.19 141.28L1229.17 141.28L1223.81 136.229L1218.45 141.28L1210.58 141.28L1210.58 140.723L1220.89 131.11L1226.74 131.11L1237.19 140.862ZM1218.24 203.305C1218.24 201.912 1218.76 200.763 1219.81 199.858C1220.85 198.953 1222.2 198.499 1223.85 198.499C1225.52 198.499 1226.88 198.953 1227.92 199.858C1228.97 200.763 1229.49 201.912 1229.49 203.305C1229.49 204.675 1228.97 205.825 1227.94 206.753C1226.91 207.682 1225.54 208.146 1223.85 208.146C1222.15 208.146 1220.79 207.682 1219.77 206.753C1218.75 205.825 1218.24 204.675 1218.24 203.305Z" fill="#ffffff" fill-rule="evenodd" opacity="1" stroke="none"/>
</g>
</g>
</g>
</g>
</g>
</g>
</svg>
